<mxfile host="app.diagrams.net" agent="Mozilla/5.0 (Windows NT 10.0; Win64; x64) AppleWebKit/537.36 (KHTML, like Gecko) Chrome/129.0.0.0 Safari/537.36" version="24.7.16">
  <diagram name="PÃ¡gina-1" id="XeOe8NWcu0kiPKFnsV3s">
    <mxGraphModel dx="1628" dy="2136" grid="1" gridSize="10" guides="1" tooltips="1" connect="1" arrows="1" fold="1" page="1" pageScale="1" pageWidth="827" pageHeight="1169" background="#212121" math="0" shadow="0">
      <root>
        <mxCell id="0" />
        <mxCell id="1" parent="0" />
        <mxCell id="Vj6AmxVf0trEwSzTgeyn-90" value="" style="rounded=1;whiteSpace=wrap;html=1;fillColor=none;strokeWidth=2;strokeColor=#FFFFFF;dashed=1;" vertex="1" parent="1">
          <mxGeometry x="511.33" y="540" width="188.01" height="70" as="geometry" />
        </mxCell>
        <mxCell id="Vj6AmxVf0trEwSzTgeyn-78" value="" style="rounded=1;whiteSpace=wrap;html=1;fillColor=none;strokeWidth=2;strokeColor=#FFFFFF;dashed=1;" vertex="1" parent="1">
          <mxGeometry x="500" y="280" width="190.34" height="70" as="geometry" />
        </mxCell>
        <mxCell id="Vj6AmxVf0trEwSzTgeyn-72" value="" style="rounded=1;whiteSpace=wrap;html=1;fillColor=none;strokeWidth=2;strokeColor=#FFFFFF;dashed=1;" vertex="1" parent="1">
          <mxGeometry x="500" y="200" width="190.34" height="70" as="geometry" />
        </mxCell>
        <mxCell id="Vj6AmxVf0trEwSzTgeyn-66" value="" style="rounded=1;whiteSpace=wrap;html=1;fillColor=none;strokeWidth=2;strokeColor=#FFFFFF;dashed=1;" vertex="1" parent="1">
          <mxGeometry x="500" y="120" width="190.34" height="70" as="geometry" />
        </mxCell>
        <mxCell id="Vj6AmxVf0trEwSzTgeyn-104" value="" style="rounded=1;whiteSpace=wrap;html=1;fillColor=none;strokeColor=#FFFFFF;dashed=1;" vertex="1" parent="1">
          <mxGeometry x="290" y="92" width="140" height="478" as="geometry" />
        </mxCell>
        <mxCell id="Vj6AmxVf0trEwSzTgeyn-190" value="" style="edgeStyle=none;shape=connector;rounded=0;orthogonalLoop=1;jettySize=auto;html=1;strokeColor=#E6E6E6;align=center;verticalAlign=middle;fontFamily=Helvetica;fontSize=11;fontColor=default;labelBackgroundColor=default;startArrow=classic;startFill=1;endArrow=classic;entryX=0.017;entryY=0.775;entryDx=0;entryDy=0;entryPerimeter=0;exitX=1;exitY=0.5;exitDx=0;exitDy=0;" edge="1" parent="1" source="Vj6AmxVf0trEwSzTgeyn-84" target="Vj6AmxVf0trEwSzTgeyn-176">
          <mxGeometry relative="1" as="geometry" />
        </mxCell>
        <mxCell id="Vj6AmxVf0trEwSzTgeyn-84" value="" style="rounded=1;whiteSpace=wrap;html=1;fillColor=none;strokeWidth=2;strokeColor=#FFFFFF;dashed=1;" vertex="1" parent="1">
          <mxGeometry x="500" y="370" width="188.01" height="70" as="geometry" />
        </mxCell>
        <mxCell id="Vj6AmxVf0trEwSzTgeyn-60" value="" style="rounded=1;whiteSpace=wrap;html=1;fillColor=none;strokeWidth=2;strokeColor=#FFFFFF;dashed=1;" vertex="1" parent="1">
          <mxGeometry x="500" y="450" width="187.67" height="70" as="geometry" />
        </mxCell>
        <mxCell id="Vj6AmxVf0trEwSzTgeyn-187" value="" style="edgeStyle=none;shape=connector;rounded=0;orthogonalLoop=1;jettySize=auto;html=1;strokeColor=#E6E6E6;align=center;verticalAlign=middle;fontFamily=Helvetica;fontSize=11;fontColor=default;labelBackgroundColor=default;startArrow=classic;startFill=1;endArrow=classic;exitX=1.001;exitY=0.581;exitDx=0;exitDy=0;exitPerimeter=0;entryX=-0.036;entryY=0.532;entryDx=0;entryDy=0;entryPerimeter=0;" edge="1" parent="1" source="Vj6AmxVf0trEwSzTgeyn-78" target="Vj6AmxVf0trEwSzTgeyn-176">
          <mxGeometry relative="1" as="geometry" />
        </mxCell>
        <mxCell id="Vj6AmxVf0trEwSzTgeyn-12" value="" style="sketch=0;points=[[0,0,0],[0.25,0,0],[0.5,0,0],[0.75,0,0],[1,0,0],[0,1,0],[0.25,1,0],[0.5,1,0],[0.75,1,0],[1,1,0],[0,0.25,0],[0,0.5,0],[0,0.75,0],[1,0.25,0],[1,0.5,0],[1,0.75,0]];outlineConnect=0;fontColor=#232F3E;fillColor=none;strokeColor=#ffffff;dashed=0;verticalLabelPosition=bottom;verticalAlign=top;align=center;html=1;fontSize=12;fontStyle=0;aspect=fixed;shape=mxgraph.aws4.resourceIcon;resIcon=mxgraph.aws4.api_gateway;" vertex="1" parent="1">
          <mxGeometry x="722.3399999999999" y="-736" width="38" height="38" as="geometry" />
        </mxCell>
        <mxCell id="Vj6AmxVf0trEwSzTgeyn-67" value="" style="sketch=0;outlineConnect=0;fontColor=#232F3E;gradientColor=none;fillColor=#FF9999;strokeColor=none;dashed=0;verticalLabelPosition=bottom;verticalAlign=top;align=center;html=1;fontSize=12;fontStyle=0;aspect=fixed;pointerEvents=1;shape=mxgraph.aws4.generic_database;" vertex="1" parent="1">
          <mxGeometry x="591.6599999999999" y="144" width="22.69" height="30" as="geometry" />
        </mxCell>
        <mxCell id="Vj6AmxVf0trEwSzTgeyn-73" value="" style="sketch=0;outlineConnect=0;fontColor=#232F3E;gradientColor=none;fillColor=#9999FF;strokeColor=#9999FF;dashed=0;verticalLabelPosition=bottom;verticalAlign=top;align=center;html=1;fontSize=12;fontStyle=0;aspect=fixed;pointerEvents=1;shape=mxgraph.aws4.generic_database;" vertex="1" parent="1">
          <mxGeometry x="591.6599999999999" y="224" width="22.69" height="30" as="geometry" />
        </mxCell>
        <mxCell id="Vj6AmxVf0trEwSzTgeyn-79" value="" style="sketch=0;outlineConnect=0;fontColor=#232F3E;gradientColor=none;fillColor=#E6E6E6;strokeColor=none;dashed=0;verticalLabelPosition=bottom;verticalAlign=top;align=center;html=1;fontSize=12;fontStyle=0;aspect=fixed;pointerEvents=1;shape=mxgraph.aws4.generic_database;" vertex="1" parent="1">
          <mxGeometry x="591.6599999999999" y="304" width="22.69" height="30" as="geometry" />
        </mxCell>
        <mxCell id="Vj6AmxVf0trEwSzTgeyn-91" value="" style="sketch=0;outlineConnect=0;fontColor=#232F3E;gradientColor=none;fillColor=#CCFFCC;strokeColor=none;dashed=0;verticalLabelPosition=bottom;verticalAlign=top;align=center;html=1;fontSize=12;fontStyle=0;aspect=fixed;pointerEvents=1;shape=mxgraph.aws4.generic_database;" vertex="1" parent="1">
          <mxGeometry x="600.66" y="564" width="22.69" height="30" as="geometry" />
        </mxCell>
        <mxCell id="Vj6AmxVf0trEwSzTgeyn-102" value="" style="sketch=0;points=[[0,0,0],[0.25,0,0],[0.5,0,0],[0.75,0,0],[1,0,0],[0,1,0],[0.25,1,0],[0.5,1,0],[0.75,1,0],[1,1,0],[0,0.25,0],[0,0.5,0],[0,0.75,0],[1,0.25,0],[1,0.5,0],[1,0.75,0]];outlineConnect=0;fontColor=#232F3E;fillColor=none;strokeColor=#ffffff;dashed=0;verticalLabelPosition=bottom;verticalAlign=top;align=center;html=1;fontSize=12;fontStyle=0;aspect=fixed;shape=mxgraph.aws4.resourceIcon;resIcon=mxgraph.aws4.api_gateway;" vertex="1" parent="1">
          <mxGeometry x="351" y="270" width="38" height="38" as="geometry" />
        </mxCell>
        <mxCell id="Vj6AmxVf0trEwSzTgeyn-106" style="edgeStyle=orthogonalEdgeStyle;rounded=0;orthogonalLoop=1;jettySize=auto;html=1;strokeColor=#FFFFFF;" edge="1" parent="1" source="Vj6AmxVf0trEwSzTgeyn-11" target="Vj6AmxVf0trEwSzTgeyn-105">
          <mxGeometry relative="1" as="geometry">
            <Array as="points">
              <mxPoint x="260" y="228" />
              <mxPoint x="260" y="200" />
            </Array>
          </mxGeometry>
        </mxCell>
        <mxCell id="Vj6AmxVf0trEwSzTgeyn-108" value="" style="line;strokeWidth=4;direction=south;html=1;perimeter=backbonePerimeter;points=[];outlineConnect=0;strokeColor=#FFFFFF;" vertex="1" parent="1">
          <mxGeometry x="460" y="-40" width="10" height="310" as="geometry" />
        </mxCell>
        <mxCell id="Vj6AmxVf0trEwSzTgeyn-39" value="" style="rounded=1;whiteSpace=wrap;html=1;fillColor=none;strokeWidth=2;strokeColor=#FFFFFF;dashed=1;" vertex="1" parent="1">
          <mxGeometry x="500" y="-120" width="192.67" height="70" as="geometry" />
        </mxCell>
        <mxCell id="Vj6AmxVf0trEwSzTgeyn-48" value="" style="rounded=1;whiteSpace=wrap;html=1;fillColor=none;strokeWidth=2;strokeColor=#FFFFFF;dashed=1;" vertex="1" parent="1">
          <mxGeometry x="500" y="-40" width="192.67" height="70" as="geometry" />
        </mxCell>
        <mxCell id="Vj6AmxVf0trEwSzTgeyn-4" value="" style="swimlane;startSize=0;strokeColor=#3399FF;strokeWidth=3;dashed=1;" vertex="1" parent="1">
          <mxGeometry x="413" y="-1020" width="200" height="830" as="geometry" />
        </mxCell>
        <mxCell id="Vj6AmxVf0trEwSzTgeyn-5" value="&lt;b style=&quot;font-size: 18px;&quot;&gt;&lt;font color=&quot;#3399ff&quot; style=&quot;font-size: 18px;&quot;&gt;Client apps&lt;/font&gt;&lt;/b&gt;" style="text;strokeColor=none;align=center;fillColor=none;html=1;verticalAlign=middle;whiteSpace=wrap;rounded=0;fontSize=18;" vertex="1" parent="Vj6AmxVf0trEwSzTgeyn-4">
          <mxGeometry x="36" y="10" width="120" height="30" as="geometry" />
        </mxCell>
        <mxCell id="Vj6AmxVf0trEwSzTgeyn-7" value="" style="shape=image;verticalLabelPosition=bottom;labelBackgroundColor=default;verticalAlign=top;aspect=fixed;imageAspect=0;image=https://www.htmlecsspro.com/uploads/images/2018/03/formulario-de-login-e-cadastro-com-html5-e-css3-1522145690.png;" vertex="1" parent="Vj6AmxVf0trEwSzTgeyn-4">
          <mxGeometry x="65" y="340" width="64" height="40" as="geometry" />
        </mxCell>
        <mxCell id="Vj6AmxVf0trEwSzTgeyn-8" value="&lt;font color=&quot;#8a8a8a&quot; style=&quot;font-size: 10px;&quot;&gt;React / Angular&lt;/font&gt;" style="text;strokeColor=none;align=center;fillColor=none;html=1;verticalAlign=middle;whiteSpace=wrap;rounded=0;" vertex="1" parent="Vj6AmxVf0trEwSzTgeyn-4">
          <mxGeometry x="55" y="410" width="82" height="30" as="geometry" />
        </mxCell>
        <mxCell id="Vj6AmxVf0trEwSzTgeyn-9" value="&lt;font color=&quot;#ffffff&quot;&gt;&lt;span style=&quot;font-size: 10px;&quot;&gt;ExamSystem SPA Web App&lt;/span&gt;&lt;/font&gt;" style="text;strokeColor=none;align=center;fillColor=none;html=1;verticalAlign=middle;whiteSpace=wrap;rounded=0;" vertex="1" parent="Vj6AmxVf0trEwSzTgeyn-4">
          <mxGeometry x="30" y="300" width="132" height="30" as="geometry" />
        </mxCell>
        <mxCell id="Vj6AmxVf0trEwSzTgeyn-11" value="" style="sketch=0;outlineConnect=0;fontColor=#232F3E;gradientColor=none;fillColor=#99CCFF;strokeColor=none;dashed=0;verticalLabelPosition=bottom;verticalAlign=top;align=center;html=1;fontSize=12;fontStyle=0;aspect=fixed;pointerEvents=1;shape=mxgraph.aws4.client;" vertex="1" parent="Vj6AmxVf0trEwSzTgeyn-4">
          <mxGeometry x="57" y="330" width="78" height="76" as="geometry" />
        </mxCell>
        <mxCell id="Vj6AmxVf0trEwSzTgeyn-159" style="edgeStyle=orthogonalEdgeStyle;rounded=0;orthogonalLoop=1;jettySize=auto;html=1;strokeColor=#FFFFFF;" edge="1" parent="1" source="Vj6AmxVf0trEwSzTgeyn-12" target="Vj6AmxVf0trEwSzTgeyn-134">
          <mxGeometry relative="1" as="geometry">
            <Array as="points">
              <mxPoint x="823" y="-710" />
              <mxPoint x="823" y="-650" />
            </Array>
          </mxGeometry>
        </mxCell>
        <mxCell id="Vj6AmxVf0trEwSzTgeyn-162" style="edgeStyle=orthogonalEdgeStyle;rounded=0;orthogonalLoop=1;jettySize=auto;html=1;strokeColor=#FFFFFF;" edge="1" parent="1" source="Vj6AmxVf0trEwSzTgeyn-12" target="Vj6AmxVf0trEwSzTgeyn-108">
          <mxGeometry relative="1" as="geometry">
            <Array as="points">
              <mxPoint x="823" y="-717" />
              <mxPoint x="823" y="-845" />
            </Array>
          </mxGeometry>
        </mxCell>
        <mxCell id="Vj6AmxVf0trEwSzTgeyn-13" value="&lt;font color=&quot;#ffffff&quot; style=&quot;font-size: 10px;&quot;&gt;API Gateway/BFF&lt;/font&gt;" style="text;strokeColor=none;align=center;fillColor=none;html=1;verticalAlign=middle;whiteSpace=wrap;rounded=0;" vertex="1" parent="1">
          <mxGeometry x="315" y="90" width="90" height="30" as="geometry" />
        </mxCell>
        <mxCell id="Vj6AmxVf0trEwSzTgeyn-41" value="" style="edgeStyle=orthogonalEdgeStyle;rounded=0;orthogonalLoop=1;jettySize=auto;html=1;strokeColor=#FF8000;" edge="1" parent="1" source="Vj6AmxVf0trEwSzTgeyn-19" target="Vj6AmxVf0trEwSzTgeyn-40">
          <mxGeometry relative="1" as="geometry" />
        </mxCell>
        <mxCell id="Vj6AmxVf0trEwSzTgeyn-19" value="" style="sketch=0;points=[[0,0,0],[0.25,0,0],[0.5,0,0],[0.75,0,0],[1,0,0],[0,1,0],[0.25,1,0],[0.5,1,0],[0.75,1,0],[1,1,0],[0,0.25,0],[0,0.5,0],[0,0.75,0],[1,0.25,0],[1,0.5,0],[1,0.75,0]];outlineConnect=0;fontColor=#232F3E;fillColor=none;strokeColor=#FF8000;dashed=0;verticalLabelPosition=bottom;verticalAlign=top;align=center;html=1;fontSize=12;fontStyle=0;aspect=fixed;shape=mxgraph.aws4.resourceIcon;resIcon=mxgraph.aws4.api_gateway;" vertex="1" parent="1">
          <mxGeometry x="900.8399999999998" y="-500" width="38" height="38" as="geometry" />
        </mxCell>
        <mxCell id="Vj6AmxVf0trEwSzTgeyn-40" value="" style="sketch=0;outlineConnect=0;fontColor=#232F3E;gradientColor=none;fillColor=#FF8000;strokeColor=none;dashed=0;verticalLabelPosition=bottom;verticalAlign=top;align=center;html=1;fontSize=12;fontStyle=0;aspect=fixed;pointerEvents=1;shape=mxgraph.aws4.generic_database;" vertex="1" parent="1">
          <mxGeometry x="972.1599999999999" y="-496" width="22.69" height="30" as="geometry" />
        </mxCell>
        <mxCell id="Vj6AmxVf0trEwSzTgeyn-42" value="&lt;font color=&quot;#b3b3b3&quot; style=&quot;font-size: 8px;&quot;&gt;SQL Server&lt;/font&gt;&lt;div style=&quot;font-size: 8px;&quot;&gt;&lt;font color=&quot;#b3b3b3&quot; style=&quot;font-size: 8px;&quot;&gt;database&lt;/font&gt;&lt;/div&gt;" style="text;strokeColor=none;align=center;fillColor=none;html=1;verticalAlign=middle;whiteSpace=wrap;rounded=0;" vertex="1" parent="1">
          <mxGeometry x="1010.8399999999997" y="-488" width="49.5" height="14" as="geometry" />
        </mxCell>
        <mxCell id="Vj6AmxVf0trEwSzTgeyn-43" value="&lt;font color=&quot;#ffffff&quot; style=&quot;font-size: 10px;&quot;&gt;Auth Service&lt;/font&gt;" style="text;strokeColor=none;align=center;fillColor=none;html=1;verticalAlign=middle;whiteSpace=wrap;rounded=0;" vertex="1" parent="1">
          <mxGeometry x="895.8399999999998" y="-516" width="170" height="20" as="geometry" />
        </mxCell>
        <mxCell id="Vj6AmxVf0trEwSzTgeyn-46" value="" style="edgeStyle=orthogonalEdgeStyle;rounded=0;orthogonalLoop=1;jettySize=auto;html=1;strokeColor=#3399FF;" edge="1" parent="1" source="Vj6AmxVf0trEwSzTgeyn-47" target="Vj6AmxVf0trEwSzTgeyn-49">
          <mxGeometry relative="1" as="geometry" />
        </mxCell>
        <mxCell id="Vj6AmxVf0trEwSzTgeyn-47" value="" style="sketch=0;points=[[0,0,0],[0.25,0,0],[0.5,0,0],[0.75,0,0],[1,0,0],[0,1,0],[0.25,1,0],[0.5,1,0],[0.75,1,0],[1,1,0],[0,0.25,0],[0,0.5,0],[0,0.75,0],[1,0.25,0],[1,0.5,0],[1,0.75,0]];outlineConnect=0;fontColor=#232F3E;fillColor=none;strokeColor=#3399FF;dashed=0;verticalLabelPosition=bottom;verticalAlign=top;align=center;html=1;fontSize=12;fontStyle=0;aspect=fixed;shape=mxgraph.aws4.resourceIcon;resIcon=mxgraph.aws4.api_gateway;" vertex="1" parent="1">
          <mxGeometry x="902.01" y="-980" width="38" height="38" as="geometry" />
        </mxCell>
        <mxCell id="Vj6AmxVf0trEwSzTgeyn-49" value="" style="sketch=0;outlineConnect=0;fontColor=#232F3E;gradientColor=none;fillColor=#3399FF;strokeColor=#3399FF;dashed=0;verticalLabelPosition=bottom;verticalAlign=top;align=center;html=1;fontSize=12;fontStyle=0;aspect=fixed;pointerEvents=1;shape=mxgraph.aws4.generic_database;" vertex="1" parent="1">
          <mxGeometry x="973.3299999999999" y="-976" width="22.69" height="30" as="geometry" />
        </mxCell>
        <mxCell id="Vj6AmxVf0trEwSzTgeyn-50" value="&lt;font color=&quot;#b3b3b3&quot;&gt;&lt;span style=&quot;font-size: 8px;&quot;&gt;MongoDB&lt;/span&gt;&lt;/font&gt;" style="text;strokeColor=none;align=center;fillColor=none;html=1;verticalAlign=middle;whiteSpace=wrap;rounded=0;" vertex="1" parent="1">
          <mxGeometry x="1012.01" y="-968" width="49.5" height="14" as="geometry" />
        </mxCell>
        <mxCell id="Vj6AmxVf0trEwSzTgeyn-51" value="&lt;font style=&quot;font-size: 10px;&quot; color=&quot;#ffffff&quot;&gt;Notification Service&lt;/font&gt;&lt;br&gt;&lt;div&gt;&lt;font style=&quot;font-size: 10px;&quot; color=&quot;#ffffff&quot;&gt;&lt;br&gt;&lt;/font&gt;&lt;/div&gt;" style="text;strokeColor=none;align=center;fillColor=none;html=1;verticalAlign=middle;whiteSpace=wrap;rounded=0;" vertex="1" parent="1">
          <mxGeometry x="899.68" y="-1000" width="170" height="30" as="geometry" />
        </mxCell>
        <mxCell id="Vj6AmxVf0trEwSzTgeyn-52" value="" style="edgeStyle=orthogonalEdgeStyle;rounded=0;orthogonalLoop=1;jettySize=auto;html=1;strokeColor=#00FF00;" edge="1" parent="1" source="Vj6AmxVf0trEwSzTgeyn-53" target="Vj6AmxVf0trEwSzTgeyn-55">
          <mxGeometry relative="1" as="geometry" />
        </mxCell>
        <mxCell id="Vj6AmxVf0trEwSzTgeyn-53" value="" style="sketch=0;points=[[0,0,0],[0.25,0,0],[0.5,0,0],[0.75,0,0],[1,0,0],[0,1,0],[0.25,1,0],[0.5,1,0],[0.75,1,0],[1,1,0],[0,0.25,0],[0,0.5,0],[0,0.75,0],[1,0.25,0],[1,0.5,0],[1,0.75,0]];outlineConnect=0;fontColor=#232F3E;fillColor=none;strokeColor=#00FF00;dashed=0;verticalLabelPosition=bottom;verticalAlign=top;align=center;html=1;fontSize=12;fontStyle=0;aspect=fixed;shape=mxgraph.aws4.resourceIcon;resIcon=mxgraph.aws4.api_gateway;" vertex="1" parent="1">
          <mxGeometry x="902.01" y="-900" width="38" height="38" as="geometry" />
        </mxCell>
        <mxCell id="Vj6AmxVf0trEwSzTgeyn-55" value="" style="sketch=0;outlineConnect=0;fontColor=#232F3E;gradientColor=none;fillColor=#00FF00;strokeColor=#00FF00;dashed=0;verticalLabelPosition=bottom;verticalAlign=top;align=center;html=1;fontSize=12;fontStyle=0;aspect=fixed;pointerEvents=1;shape=mxgraph.aws4.generic_database;" vertex="1" parent="1">
          <mxGeometry x="973.3299999999999" y="-896" width="22.69" height="30" as="geometry" />
        </mxCell>
        <mxCell id="Vj6AmxVf0trEwSzTgeyn-56" value="&lt;font color=&quot;#b3b3b3&quot; style=&quot;font-size: 8px;&quot;&gt;SQL Server&lt;/font&gt;&lt;div style=&quot;font-size: 8px;&quot;&gt;&lt;font color=&quot;#b3b3b3&quot; style=&quot;font-size: 8px;&quot;&gt;database&lt;/font&gt;&lt;/div&gt;" style="text;strokeColor=none;align=center;fillColor=none;html=1;verticalAlign=middle;whiteSpace=wrap;rounded=0;" vertex="1" parent="1">
          <mxGeometry x="1012.01" y="-888" width="49.5" height="14" as="geometry" />
        </mxCell>
        <mxCell id="Vj6AmxVf0trEwSzTgeyn-57" value="&lt;font color=&quot;#ffffff&quot;&gt;&lt;span style=&quot;font-size: 10px;&quot;&gt;Exam Creation Service&lt;/span&gt;&lt;/font&gt;" style="text;strokeColor=none;align=center;fillColor=none;html=1;verticalAlign=middle;whiteSpace=wrap;rounded=0;" vertex="1" parent="1">
          <mxGeometry x="899.68" y="-920" width="170" height="30" as="geometry" />
        </mxCell>
        <mxCell id="Vj6AmxVf0trEwSzTgeyn-58" value="" style="edgeStyle=orthogonalEdgeStyle;rounded=0;orthogonalLoop=1;jettySize=auto;html=1;strokeColor=#85780B;" edge="1" parent="1" source="Vj6AmxVf0trEwSzTgeyn-59" target="Vj6AmxVf0trEwSzTgeyn-61">
          <mxGeometry relative="1" as="geometry" />
        </mxCell>
        <mxCell id="Vj6AmxVf0trEwSzTgeyn-59" value="" style="sketch=0;points=[[0,0,0],[0.25,0,0],[0.5,0,0],[0.75,0,0],[1,0,0],[0,1,0],[0.25,1,0],[0.5,1,0],[0.75,1,0],[1,1,0],[0,0.25,0],[0,0.5,0],[0,0.75,0],[1,0.25,0],[1,0.5,0],[1,0.75,0]];outlineConnect=0;fontColor=#232F3E;fillColor=none;strokeColor=#85780B;dashed=0;verticalLabelPosition=bottom;verticalAlign=top;align=center;html=1;fontSize=12;fontStyle=0;aspect=fixed;shape=mxgraph.aws4.resourceIcon;resIcon=mxgraph.aws4.api_gateway;" vertex="1" parent="1">
          <mxGeometry x="517.67" y="470" width="38" height="38" as="geometry" />
        </mxCell>
        <mxCell id="Vj6AmxVf0trEwSzTgeyn-61" value="" style="sketch=0;outlineConnect=0;fontColor=#232F3E;gradientColor=none;fillColor=#85780B;strokeColor=#9933FF;dashed=0;verticalLabelPosition=bottom;verticalAlign=top;align=center;html=1;fontSize=12;fontStyle=0;aspect=fixed;pointerEvents=1;shape=mxgraph.aws4.generic_database;" vertex="1" parent="1">
          <mxGeometry x="588.9899999999999" y="474" width="22.69" height="30" as="geometry" />
        </mxCell>
        <mxCell id="Vj6AmxVf0trEwSzTgeyn-62" value="&lt;font color=&quot;#b3b3b3&quot; style=&quot;font-size: 8px;&quot;&gt;SQL Server&lt;/font&gt;&lt;div style=&quot;font-size: 8px;&quot;&gt;&lt;font color=&quot;#b3b3b3&quot; style=&quot;font-size: 8px;&quot;&gt;database&lt;/font&gt;&lt;/div&gt;" style="text;strokeColor=none;align=center;fillColor=none;html=1;verticalAlign=middle;whiteSpace=wrap;rounded=0;" vertex="1" parent="1">
          <mxGeometry x="627.67" y="482" width="49.5" height="14" as="geometry" />
        </mxCell>
        <mxCell id="Vj6AmxVf0trEwSzTgeyn-63" value="&lt;font color=&quot;#ffffff&quot;&gt;&lt;span style=&quot;font-size: 10px;&quot;&gt;Exam Management Service&lt;/span&gt;&lt;/font&gt;" style="text;strokeColor=none;align=center;fillColor=none;html=1;verticalAlign=middle;whiteSpace=wrap;rounded=0;" vertex="1" parent="1">
          <mxGeometry x="515.3399999999999" y="450" width="170" height="30" as="geometry" />
        </mxCell>
        <mxCell id="Vj6AmxVf0trEwSzTgeyn-64" value="" style="edgeStyle=orthogonalEdgeStyle;rounded=0;orthogonalLoop=1;jettySize=auto;html=1;strokeColor=#FF9999;" edge="1" parent="1" source="Vj6AmxVf0trEwSzTgeyn-65" target="Vj6AmxVf0trEwSzTgeyn-67">
          <mxGeometry relative="1" as="geometry" />
        </mxCell>
        <mxCell id="Vj6AmxVf0trEwSzTgeyn-65" value="" style="sketch=0;points=[[0,0,0],[0.25,0,0],[0.5,0,0],[0.75,0,0],[1,0,0],[0,1,0],[0.25,1,0],[0.5,1,0],[0.75,1,0],[1,1,0],[0,0.25,0],[0,0.5,0],[0,0.75,0],[1,0.25,0],[1,0.5,0],[1,0.75,0]];outlineConnect=0;fontColor=#232F3E;fillColor=none;strokeColor=#FF9999;dashed=0;verticalLabelPosition=bottom;verticalAlign=top;align=center;html=1;fontSize=12;fontStyle=0;aspect=fixed;shape=mxgraph.aws4.resourceIcon;resIcon=mxgraph.aws4.api_gateway;" vertex="1" parent="1">
          <mxGeometry x="520.3399999999999" y="140" width="38" height="38" as="geometry" />
        </mxCell>
        <mxCell id="Vj6AmxVf0trEwSzTgeyn-68" value="&lt;font color=&quot;#b3b3b3&quot; style=&quot;font-size: 8px;&quot;&gt;SQL Server&lt;/font&gt;&lt;div style=&quot;font-size: 8px;&quot;&gt;&lt;font color=&quot;#b3b3b3&quot; style=&quot;font-size: 8px;&quot;&gt;database&lt;/font&gt;&lt;/div&gt;" style="text;strokeColor=none;align=center;fillColor=none;html=1;verticalAlign=middle;whiteSpace=wrap;rounded=0;" vertex="1" parent="1">
          <mxGeometry x="630.3399999999999" y="152" width="49.5" height="14" as="geometry" />
        </mxCell>
        <mxCell id="Vj6AmxVf0trEwSzTgeyn-69" value="&lt;font color=&quot;#ffffff&quot;&gt;&lt;span style=&quot;font-size: 10px;&quot;&gt;Grading Service&lt;/span&gt;&lt;/font&gt;" style="text;strokeColor=none;align=center;fillColor=none;html=1;verticalAlign=middle;whiteSpace=wrap;rounded=0;" vertex="1" parent="1">
          <mxGeometry x="518.0099999999999" y="120" width="170" height="30" as="geometry" />
        </mxCell>
        <mxCell id="Vj6AmxVf0trEwSzTgeyn-70" value="" style="edgeStyle=orthogonalEdgeStyle;rounded=0;orthogonalLoop=1;jettySize=auto;html=1;strokeColor=#9999FF;" edge="1" parent="1" source="Vj6AmxVf0trEwSzTgeyn-71" target="Vj6AmxVf0trEwSzTgeyn-73">
          <mxGeometry relative="1" as="geometry" />
        </mxCell>
        <mxCell id="Vj6AmxVf0trEwSzTgeyn-71" value="" style="sketch=0;points=[[0,0,0],[0.25,0,0],[0.5,0,0],[0.75,0,0],[1,0,0],[0,1,0],[0.25,1,0],[0.5,1,0],[0.75,1,0],[1,1,0],[0,0.25,0],[0,0.5,0],[0,0.75,0],[1,0.25,0],[1,0.5,0],[1,0.75,0]];outlineConnect=0;fontColor=#232F3E;fillColor=none;strokeColor=#9999FF;dashed=0;verticalLabelPosition=bottom;verticalAlign=top;align=center;html=1;fontSize=12;fontStyle=0;aspect=fixed;shape=mxgraph.aws4.resourceIcon;resIcon=mxgraph.aws4.api_gateway;" vertex="1" parent="1">
          <mxGeometry x="520.3399999999999" y="220" width="38" height="38" as="geometry" />
        </mxCell>
        <mxCell id="Vj6AmxVf0trEwSzTgeyn-74" value="&lt;font color=&quot;#b3b3b3&quot; style=&quot;font-size: 8px;&quot;&gt;SQL Server&lt;/font&gt;&lt;div style=&quot;font-size: 8px;&quot;&gt;&lt;font color=&quot;#b3b3b3&quot; style=&quot;font-size: 8px;&quot;&gt;database&lt;/font&gt;&lt;/div&gt;" style="text;strokeColor=none;align=center;fillColor=none;html=1;verticalAlign=middle;whiteSpace=wrap;rounded=0;" vertex="1" parent="1">
          <mxGeometry x="630.3399999999999" y="232" width="49.5" height="14" as="geometry" />
        </mxCell>
        <mxCell id="Vj6AmxVf0trEwSzTgeyn-75" value="&lt;font color=&quot;#ffffff&quot; style=&quot;font-size: 10px;&quot;&gt;Reporting Service&lt;/font&gt;" style="text;strokeColor=none;align=center;fillColor=none;html=1;verticalAlign=middle;whiteSpace=wrap;rounded=0;" vertex="1" parent="1">
          <mxGeometry x="515.3399999999999" y="204" width="170" height="20" as="geometry" />
        </mxCell>
        <mxCell id="Vj6AmxVf0trEwSzTgeyn-76" value="" style="edgeStyle=orthogonalEdgeStyle;rounded=0;orthogonalLoop=1;jettySize=auto;html=1;strokeColor=#E6E6E6;" edge="1" parent="1" source="Vj6AmxVf0trEwSzTgeyn-77" target="Vj6AmxVf0trEwSzTgeyn-79">
          <mxGeometry relative="1" as="geometry" />
        </mxCell>
        <mxCell id="Vj6AmxVf0trEwSzTgeyn-77" value="" style="sketch=0;points=[[0,0,0],[0.25,0,0],[0.5,0,0],[0.75,0,0],[1,0,0],[0,1,0],[0.25,1,0],[0.5,1,0],[0.75,1,0],[1,1,0],[0,0.25,0],[0,0.5,0],[0,0.75,0],[1,0.25,0],[1,0.5,0],[1,0.75,0]];outlineConnect=0;fontColor=#232F3E;fillColor=none;strokeColor=#E6E6E6;dashed=0;verticalLabelPosition=bottom;verticalAlign=top;align=center;html=1;fontSize=12;fontStyle=0;aspect=fixed;shape=mxgraph.aws4.resourceIcon;resIcon=mxgraph.aws4.api_gateway;" vertex="1" parent="1">
          <mxGeometry x="520.3399999999999" y="300" width="38" height="38" as="geometry" />
        </mxCell>
        <mxCell id="Vj6AmxVf0trEwSzTgeyn-80" value="&lt;font color=&quot;#b3b3b3&quot; style=&quot;font-size: 8px;&quot;&gt;SQL Server&lt;/font&gt;&lt;div style=&quot;font-size: 8px;&quot;&gt;&lt;font color=&quot;#b3b3b3&quot; style=&quot;font-size: 8px;&quot;&gt;database&lt;/font&gt;&lt;/div&gt;" style="text;strokeColor=none;align=center;fillColor=none;html=1;verticalAlign=middle;whiteSpace=wrap;rounded=0;" vertex="1" parent="1">
          <mxGeometry x="630.3399999999999" y="312" width="49.5" height="14" as="geometry" />
        </mxCell>
        <mxCell id="Vj6AmxVf0trEwSzTgeyn-81" value="&lt;div&gt;&lt;span style=&quot;color: rgb(255, 255, 255); font-size: 10px;&quot;&gt;User Management Service&amp;nbsp;&lt;/span&gt;&lt;font color=&quot;#ffffff&quot; style=&quot;font-size: 10px;&quot;&gt;&lt;br&gt;&lt;/font&gt;&lt;/div&gt;" style="text;strokeColor=none;align=center;fillColor=none;html=1;verticalAlign=middle;whiteSpace=wrap;rounded=0;" vertex="1" parent="1">
          <mxGeometry x="518.0099999999999" y="280" width="170" height="30" as="geometry" />
        </mxCell>
        <mxCell id="Vj6AmxVf0trEwSzTgeyn-82" value="" style="edgeStyle=orthogonalEdgeStyle;rounded=0;orthogonalLoop=1;jettySize=auto;html=1;strokeColor=#CCE5FF;" edge="1" parent="1" source="Vj6AmxVf0trEwSzTgeyn-83" target="Vj6AmxVf0trEwSzTgeyn-85">
          <mxGeometry relative="1" as="geometry" />
        </mxCell>
        <mxCell id="Vj6AmxVf0trEwSzTgeyn-83" value="" style="sketch=0;points=[[0,0,0],[0.25,0,0],[0.5,0,0],[0.75,0,0],[1,0,0],[0,1,0],[0.25,1,0],[0.5,1,0],[0.75,1,0],[1,1,0],[0,0.25,0],[0,0.5,0],[0,0.75,0],[1,0.25,0],[1,0.5,0],[1,0.75,0]];outlineConnect=0;fontColor=#232F3E;fillColor=none;strokeColor=#CCE5FF;dashed=0;verticalLabelPosition=bottom;verticalAlign=top;align=center;html=1;fontSize=12;fontStyle=0;aspect=fixed;shape=mxgraph.aws4.resourceIcon;resIcon=mxgraph.aws4.api_gateway;" vertex="1" parent="1">
          <mxGeometry x="518.01" y="390" width="38" height="38" as="geometry" />
        </mxCell>
        <mxCell id="Vj6AmxVf0trEwSzTgeyn-85" value="" style="sketch=0;outlineConnect=0;fontColor=#232F3E;gradientColor=none;fillColor=#CCE5FF;strokeColor=none;dashed=0;verticalLabelPosition=bottom;verticalAlign=top;align=center;html=1;fontSize=12;fontStyle=0;aspect=fixed;pointerEvents=1;shape=mxgraph.aws4.generic_database;" vertex="1" parent="1">
          <mxGeometry x="589.3299999999999" y="394" width="22.69" height="30" as="geometry" />
        </mxCell>
        <mxCell id="Vj6AmxVf0trEwSzTgeyn-86" value="&lt;font color=&quot;#b3b3b3&quot; style=&quot;font-size: 8px;&quot;&gt;InfluxDB&lt;/font&gt;" style="text;strokeColor=none;align=center;fillColor=none;html=1;verticalAlign=middle;whiteSpace=wrap;rounded=0;" vertex="1" parent="1">
          <mxGeometry x="628.01" y="402" width="49.5" height="14" as="geometry" />
        </mxCell>
        <mxCell id="Vj6AmxVf0trEwSzTgeyn-87" value="&lt;font color=&quot;#ffffff&quot;&gt;&lt;span style=&quot;font-size: 10px;&quot;&gt;Monitoring Service&lt;/span&gt;&lt;/font&gt;" style="text;strokeColor=none;align=center;fillColor=none;html=1;verticalAlign=middle;whiteSpace=wrap;rounded=0;" vertex="1" parent="1">
          <mxGeometry x="515.68" y="370" width="170" height="30" as="geometry" />
        </mxCell>
        <mxCell id="Vj6AmxVf0trEwSzTgeyn-88" value="" style="edgeStyle=orthogonalEdgeStyle;rounded=0;orthogonalLoop=1;jettySize=auto;html=1;strokeColor=#CCFFCC;" edge="1" parent="1" source="Vj6AmxVf0trEwSzTgeyn-89" target="Vj6AmxVf0trEwSzTgeyn-91">
          <mxGeometry relative="1" as="geometry" />
        </mxCell>
        <mxCell id="Vj6AmxVf0trEwSzTgeyn-89" value="" style="sketch=0;points=[[0,0,0],[0.25,0,0],[0.5,0,0],[0.75,0,0],[1,0,0],[0,1,0],[0.25,1,0],[0.5,1,0],[0.75,1,0],[1,1,0],[0,0.25,0],[0,0.5,0],[0,0.75,0],[1,0.25,0],[1,0.5,0],[1,0.75,0]];outlineConnect=0;fontColor=#232F3E;fillColor=none;strokeColor=#CCFFCC;dashed=0;verticalLabelPosition=bottom;verticalAlign=top;align=center;html=1;fontSize=12;fontStyle=0;aspect=fixed;shape=mxgraph.aws4.resourceIcon;resIcon=mxgraph.aws4.api_gateway;" vertex="1" parent="1">
          <mxGeometry x="529.34" y="560" width="38" height="38" as="geometry" />
        </mxCell>
        <mxCell id="Vj6AmxVf0trEwSzTgeyn-92" value="&lt;font color=&quot;#b3b3b3&quot; style=&quot;font-size: 8px;&quot;&gt;SQL Server&lt;/font&gt;&lt;div style=&quot;font-size: 8px;&quot;&gt;&lt;font color=&quot;#b3b3b3&quot; style=&quot;font-size: 8px;&quot;&gt;database&lt;/font&gt;&lt;/div&gt;" style="text;strokeColor=none;align=center;fillColor=none;html=1;verticalAlign=middle;whiteSpace=wrap;rounded=0;" vertex="1" parent="1">
          <mxGeometry x="639.34" y="572" width="49.5" height="14" as="geometry" />
        </mxCell>
        <mxCell id="Vj6AmxVf0trEwSzTgeyn-93" value="&lt;font color=&quot;#ffffff&quot;&gt;&lt;span style=&quot;font-size: 10px;&quot;&gt;Content Management Service&lt;/span&gt;&lt;/font&gt;" style="text;strokeColor=none;align=center;fillColor=none;html=1;verticalAlign=middle;whiteSpace=wrap;rounded=0;" vertex="1" parent="1">
          <mxGeometry x="527.01" y="540" width="170" height="30" as="geometry" />
        </mxCell>
        <mxCell id="Vj6AmxVf0trEwSzTgeyn-101" value="&lt;div&gt;&lt;font color=&quot;#ffffff&quot; style=&quot;font-size: 10px;&quot;&gt;Web&lt;/font&gt;&lt;font color=&quot;#8a8a8a&quot; style=&quot;font-size: 10px;&quot;&gt;-Exam&lt;/font&gt;&lt;/div&gt;" style="text;strokeColor=none;align=center;fillColor=none;html=1;verticalAlign=middle;whiteSpace=wrap;rounded=0;" vertex="1" parent="1">
          <mxGeometry x="691.3399999999999" y="-696" width="100" height="10" as="geometry" />
        </mxCell>
        <mxCell id="Vj6AmxVf0trEwSzTgeyn-146" style="edgeStyle=orthogonalEdgeStyle;rounded=0;orthogonalLoop=1;jettySize=auto;html=1;strokeColor=#FFFFFF;" edge="1" parent="1" source="Vj6AmxVf0trEwSzTgeyn-102" target="Vj6AmxVf0trEwSzTgeyn-134">
          <mxGeometry relative="1" as="geometry">
            <Array as="points">
              <mxPoint x="801" y="-610" />
              <mxPoint x="801" y="-470" />
            </Array>
          </mxGeometry>
        </mxCell>
        <mxCell id="Vj6AmxVf0trEwSzTgeyn-147" style="edgeStyle=orthogonalEdgeStyle;rounded=0;orthogonalLoop=1;jettySize=auto;html=1;strokeColor=#FFFFFF;" edge="1" parent="1" source="Vj6AmxVf0trEwSzTgeyn-102" target="Vj6AmxVf0trEwSzTgeyn-115">
          <mxGeometry relative="1" as="geometry">
            <mxPoint x="761.5699999999999" y="-589.5" as="sourcePoint" />
            <mxPoint x="839.3374418604651" y="-512.5" as="targetPoint" />
            <Array as="points">
              <mxPoint x="789" y="-600" />
              <mxPoint x="789" y="-310" />
            </Array>
          </mxGeometry>
        </mxCell>
        <mxCell id="Vj6AmxVf0trEwSzTgeyn-103" value="&lt;div&gt;&lt;font color=&quot;#ffffff&quot; style=&quot;font-size: 10px;&quot;&gt;Admin&lt;/font&gt;&lt;font color=&quot;#8a8a8a&quot; style=&quot;font-size: 10px;&quot;&gt;-Exam&lt;/font&gt;&lt;/div&gt;" style="text;strokeColor=none;align=center;fillColor=none;html=1;verticalAlign=middle;whiteSpace=wrap;rounded=0;" vertex="1" parent="1">
          <mxGeometry x="320" y="308" width="100" height="10" as="geometry" />
        </mxCell>
        <mxCell id="Vj6AmxVf0trEwSzTgeyn-105" value="" style="line;strokeWidth=4;direction=south;html=1;perimeter=backbonePerimeter;points=[];outlineConnect=0;strokeColor=#FFFFFF;" vertex="1" parent="1">
          <mxGeometry x="310" y="157.5" width="10" height="362.5" as="geometry" />
        </mxCell>
        <mxCell id="Vj6AmxVf0trEwSzTgeyn-126" style="edgeStyle=orthogonalEdgeStyle;rounded=0;orthogonalLoop=1;jettySize=auto;html=1;strokeColor=#FFFFFF;" edge="1" parent="1" source="Vj6AmxVf0trEwSzTgeyn-108" target="Vj6AmxVf0trEwSzTgeyn-47">
          <mxGeometry relative="1" as="geometry">
            <Array as="points">
              <mxPoint x="879.3399999999999" y="-960" />
              <mxPoint x="879.3399999999999" y="-960" />
            </Array>
          </mxGeometry>
        </mxCell>
        <mxCell id="Vj6AmxVf0trEwSzTgeyn-127" style="edgeStyle=orthogonalEdgeStyle;rounded=0;orthogonalLoop=1;jettySize=auto;html=1;strokeColor=#FFFFFF;" edge="1" parent="1" source="Vj6AmxVf0trEwSzTgeyn-108" target="Vj6AmxVf0trEwSzTgeyn-53">
          <mxGeometry relative="1" as="geometry">
            <Array as="points">
              <mxPoint x="869.3399999999999" y="-881" />
              <mxPoint x="869.3399999999999" y="-881" />
            </Array>
          </mxGeometry>
        </mxCell>
        <mxCell id="Vj6AmxVf0trEwSzTgeyn-129" style="edgeStyle=orthogonalEdgeStyle;rounded=0;orthogonalLoop=1;jettySize=auto;html=1;strokeColor=#FFFFFF;" edge="1" parent="1" source="Vj6AmxVf0trEwSzTgeyn-108" target="Vj6AmxVf0trEwSzTgeyn-65">
          <mxGeometry relative="1" as="geometry">
            <Array as="points">
              <mxPoint x="869.3399999999999" y="-801" />
              <mxPoint x="869.3399999999999" y="-801" />
            </Array>
          </mxGeometry>
        </mxCell>
        <mxCell id="Vj6AmxVf0trEwSzTgeyn-155" style="edgeStyle=orthogonalEdgeStyle;rounded=0;orthogonalLoop=1;jettySize=auto;html=1;strokeColor=#FFFFFF;" edge="1" parent="1" source="Vj6AmxVf0trEwSzTgeyn-115" target="Vj6AmxVf0trEwSzTgeyn-59">
          <mxGeometry relative="1" as="geometry">
            <Array as="points">
              <mxPoint x="864" y="-310" />
              <mxPoint x="864" y="-310" />
            </Array>
          </mxGeometry>
        </mxCell>
        <mxCell id="Vj6AmxVf0trEwSzTgeyn-119" style="edgeStyle=orthogonalEdgeStyle;rounded=0;orthogonalLoop=1;jettySize=auto;html=1;entryX=0;entryY=0.5;entryDx=0;entryDy=0;entryPerimeter=0;strokeColor=#FFFFFF;" edge="1" parent="1" source="Vj6AmxVf0trEwSzTgeyn-105" target="Vj6AmxVf0trEwSzTgeyn-12">
          <mxGeometry relative="1" as="geometry">
            <Array as="points">
              <mxPoint x="701.3399999999999" y="-717" />
              <mxPoint x="701.3399999999999" y="-717" />
            </Array>
          </mxGeometry>
        </mxCell>
        <mxCell id="Vj6AmxVf0trEwSzTgeyn-132" style="edgeStyle=orthogonalEdgeStyle;rounded=0;orthogonalLoop=1;jettySize=auto;html=1;entryX=0;entryY=0.5;entryDx=0;entryDy=0;entryPerimeter=0;strokeColor=#FFFFFF;" edge="1" parent="1" source="Vj6AmxVf0trEwSzTgeyn-108" target="Vj6AmxVf0trEwSzTgeyn-71">
          <mxGeometry relative="1" as="geometry">
            <Array as="points">
              <mxPoint x="863" y="-721" />
              <mxPoint x="863" y="-721" />
            </Array>
          </mxGeometry>
        </mxCell>
        <mxCell id="Vj6AmxVf0trEwSzTgeyn-136" style="edgeStyle=orthogonalEdgeStyle;rounded=0;orthogonalLoop=1;jettySize=auto;html=1;strokeColor=#FFFFFF;" edge="1" parent="1" source="Vj6AmxVf0trEwSzTgeyn-134" target="Vj6AmxVf0trEwSzTgeyn-77">
          <mxGeometry relative="1" as="geometry">
            <Array as="points">
              <mxPoint x="863" y="-641" />
              <mxPoint x="863" y="-641" />
            </Array>
          </mxGeometry>
        </mxCell>
        <mxCell id="Vj6AmxVf0trEwSzTgeyn-165" style="edgeStyle=orthogonalEdgeStyle;rounded=0;orthogonalLoop=1;jettySize=auto;html=1;strokeColor=#FFFFFF;" edge="1" parent="1" source="Vj6AmxVf0trEwSzTgeyn-134" target="Vj6AmxVf0trEwSzTgeyn-19">
          <mxGeometry relative="1" as="geometry">
            <Array as="points">
              <mxPoint x="853" y="-481" />
              <mxPoint x="853" y="-481" />
            </Array>
          </mxGeometry>
        </mxCell>
        <mxCell id="Vj6AmxVf0trEwSzTgeyn-134" value="" style="line;strokeWidth=4;direction=south;html=1;perimeter=backbonePerimeter;points=[];outlineConnect=0;strokeColor=#FFFFFF;" vertex="1" parent="1">
          <mxGeometry x="839.3399999999999" y="-670" width="10" height="210" as="geometry" />
        </mxCell>
        <mxCell id="Vj6AmxVf0trEwSzTgeyn-145" style="edgeStyle=orthogonalEdgeStyle;rounded=0;orthogonalLoop=1;jettySize=auto;html=1;strokeColor=#FFFFFF;" edge="1" parent="1">
          <mxGeometry relative="1" as="geometry">
            <mxPoint x="686.3399999999999" y="-603.0999999999999" as="sourcePoint" />
            <mxPoint x="720.3399999999999" y="-603.0999999999999" as="targetPoint" />
            <Array as="points">
              <mxPoint x="709.3399999999999" y="-603.0999999999999" />
              <mxPoint x="709.3399999999999" y="-603.0999999999999" />
            </Array>
          </mxGeometry>
        </mxCell>
        <mxCell id="Vj6AmxVf0trEwSzTgeyn-154" style="edgeStyle=orthogonalEdgeStyle;rounded=0;orthogonalLoop=1;jettySize=auto;html=1;entryX=0;entryY=0.5;entryDx=0;entryDy=0;entryPerimeter=0;strokeColor=#FFFFFF;" edge="1" parent="1" source="Vj6AmxVf0trEwSzTgeyn-115" target="Vj6AmxVf0trEwSzTgeyn-83">
          <mxGeometry relative="1" as="geometry">
            <Array as="points">
              <mxPoint x="863" y="-391" />
              <mxPoint x="863" y="-391" />
            </Array>
          </mxGeometry>
        </mxCell>
        <mxCell id="Vj6AmxVf0trEwSzTgeyn-164" style="edgeStyle=orthogonalEdgeStyle;rounded=0;orthogonalLoop=1;jettySize=auto;html=1;entryX=0;entryY=0.5;entryDx=0;entryDy=0;entryPerimeter=0;strokeColor=#FFFFFF;" edge="1" parent="1" source="Vj6AmxVf0trEwSzTgeyn-134" target="Vj6AmxVf0trEwSzTgeyn-89">
          <mxGeometry relative="1" as="geometry">
            <Array as="points">
              <mxPoint x="863" y="-561" />
              <mxPoint x="863" y="-561" />
            </Array>
          </mxGeometry>
        </mxCell>
        <mxCell id="Vj6AmxVf0trEwSzTgeyn-166" value="" style="rounded=1;whiteSpace=wrap;html=1;fillColor=none;strokeWidth=2;strokeColor=#FFFFFF;dashed=1;" vertex="1" parent="1">
          <mxGeometry x="873.3399999999999" y="-270" width="198.67" height="70" as="geometry" />
        </mxCell>
        <mxCell id="Vj6AmxVf0trEwSzTgeyn-167" value="" style="edgeStyle=orthogonalEdgeStyle;rounded=0;orthogonalLoop=1;jettySize=auto;html=1;strokeColor=#FFA3A3;" edge="1" parent="1" source="Vj6AmxVf0trEwSzTgeyn-168" target="Vj6AmxVf0trEwSzTgeyn-169">
          <mxGeometry relative="1" as="geometry" />
        </mxCell>
        <mxCell id="Vj6AmxVf0trEwSzTgeyn-168" value="" style="sketch=0;points=[[0,0,0],[0.25,0,0],[0.5,0,0],[0.75,0,0],[1,0,0],[0,1,0],[0.25,1,0],[0.5,1,0],[0.75,1,0],[1,1,0],[0,0.25,0],[0,0.5,0],[0,0.75,0],[1,0.25,0],[1,0.5,0],[1,0.75,0]];outlineConnect=0;fontColor=#232F3E;fillColor=none;strokeColor=#FFA3A3;dashed=0;verticalLabelPosition=bottom;verticalAlign=top;align=center;html=1;fontSize=12;fontStyle=0;aspect=fixed;shape=mxgraph.aws4.resourceIcon;resIcon=mxgraph.aws4.api_gateway;" vertex="1" parent="1">
          <mxGeometry x="902.01" y="-250" width="38" height="38" as="geometry" />
        </mxCell>
        <mxCell id="Vj6AmxVf0trEwSzTgeyn-169" value="" style="sketch=0;outlineConnect=0;fontColor=#232F3E;gradientColor=none;fillColor=#FFA3A3;strokeColor=#9933FF;dashed=0;verticalLabelPosition=bottom;verticalAlign=top;align=center;html=1;fontSize=12;fontStyle=0;aspect=fixed;pointerEvents=1;shape=mxgraph.aws4.generic_database;" vertex="1" parent="1">
          <mxGeometry x="973.3299999999999" y="-246" width="22.69" height="30" as="geometry" />
        </mxCell>
        <mxCell id="Vj6AmxVf0trEwSzTgeyn-170" value="&lt;font color=&quot;#b3b3b3&quot; style=&quot;font-size: 8px;&quot;&gt;SQL Server&lt;/font&gt;&lt;div style=&quot;font-size: 8px;&quot;&gt;&lt;font color=&quot;#b3b3b3&quot; style=&quot;font-size: 8px;&quot;&gt;database&lt;/font&gt;&lt;/div&gt;" style="text;strokeColor=none;align=center;fillColor=none;html=1;verticalAlign=middle;whiteSpace=wrap;rounded=0;" vertex="1" parent="1">
          <mxGeometry x="1012.01" y="-238" width="49.5" height="14" as="geometry" />
        </mxCell>
        <mxCell id="Vj6AmxVf0trEwSzTgeyn-171" value="&lt;font color=&quot;#ffffff&quot;&gt;&lt;span style=&quot;font-size: 10px;&quot;&gt;Audit Service&lt;/span&gt;&lt;/font&gt;" style="text;strokeColor=none;align=center;fillColor=none;html=1;verticalAlign=middle;whiteSpace=wrap;rounded=0;" vertex="1" parent="1">
          <mxGeometry x="899.68" y="-270" width="170" height="30" as="geometry" />
        </mxCell>
        <mxCell id="Vj6AmxVf0trEwSzTgeyn-172" style="edgeStyle=orthogonalEdgeStyle;rounded=0;orthogonalLoop=1;jettySize=auto;html=1;entryX=0;entryY=0.5;entryDx=0;entryDy=0;entryPerimeter=0;strokeColor=#FFFFFF;" edge="1" parent="1" source="Vj6AmxVf0trEwSzTgeyn-115" target="Vj6AmxVf0trEwSzTgeyn-168">
          <mxGeometry relative="1" as="geometry">
            <Array as="points">
              <mxPoint x="863" y="-231" />
              <mxPoint x="863" y="-231" />
            </Array>
          </mxGeometry>
        </mxCell>
        <mxCell id="Vj6AmxVf0trEwSzTgeyn-176" value="" style="shape=cylinder3;whiteSpace=wrap;html=1;boundedLbl=1;backgroundOutline=1;size=15;fillColor=#666666;strokeColor=#FFFFFF;strokeWidth=2;" vertex="1" parent="1">
          <mxGeometry x="1173" y="-800" width="60" height="366" as="geometry" />
        </mxCell>
        <mxCell id="Vj6AmxVf0trEwSzTgeyn-177" value="&lt;b style=&quot;font-size: 18px;&quot;&gt;&lt;font style=&quot;font-size: 18px;&quot; color=&quot;#ffffff&quot;&gt;Event Bus&lt;/font&gt;&lt;/b&gt;&lt;div style=&quot;&quot;&gt;&lt;font color=&quot;#e6e6e6&quot; style=&quot;font-size: 12px;&quot;&gt;(Publish/Subscribe)&lt;/font&gt;&lt;/div&gt;" style="text;strokeColor=none;align=center;fillColor=none;html=1;verticalAlign=middle;whiteSpace=wrap;rounded=0;rotation=90;" vertex="1" parent="1">
          <mxGeometry x="1128" y="-610" width="150" height="30" as="geometry" />
        </mxCell>
        <mxCell id="Vj6AmxVf0trEwSzTgeyn-181" style="rounded=0;orthogonalLoop=1;jettySize=auto;html=1;entryX=0;entryY=0.164;entryDx=0;entryDy=0;entryPerimeter=0;strokeColor=#E6E6E6;exitX=1;exitY=0.5;exitDx=0;exitDy=0;startArrow=classic;startFill=1;" edge="1" parent="1" source="Vj6AmxVf0trEwSzTgeyn-54" target="Vj6AmxVf0trEwSzTgeyn-176">
          <mxGeometry relative="1" as="geometry" />
        </mxCell>
        <mxCell id="Vj6AmxVf0trEwSzTgeyn-182" style="rounded=0;orthogonalLoop=1;jettySize=auto;html=1;entryX=0.017;entryY=0.061;entryDx=0;entryDy=0;entryPerimeter=0;exitX=1.009;exitY=0.639;exitDx=0;exitDy=0;exitPerimeter=0;strokeColor=#E6E6E6;startArrow=classic;startFill=1;" edge="1" parent="1" source="Vj6AmxVf0trEwSzTgeyn-48" target="Vj6AmxVf0trEwSzTgeyn-176">
          <mxGeometry relative="1" as="geometry" />
        </mxCell>
        <mxCell id="Vj6AmxVf0trEwSzTgeyn-191" style="edgeStyle=none;shape=connector;rounded=0;orthogonalLoop=1;jettySize=auto;html=1;entryX=0;entryY=0.874;entryDx=0;entryDy=0;entryPerimeter=0;strokeColor=#E6E6E6;align=center;verticalAlign=middle;fontFamily=Helvetica;fontSize=11;fontColor=default;labelBackgroundColor=default;startArrow=classic;startFill=1;endArrow=classic;exitX=1;exitY=0.5;exitDx=0;exitDy=0;" edge="1" parent="1" source="Vj6AmxVf0trEwSzTgeyn-60" target="Vj6AmxVf0trEwSzTgeyn-176">
          <mxGeometry relative="1" as="geometry" />
        </mxCell>
        <mxCell id="Vj6AmxVf0trEwSzTgeyn-192" style="edgeStyle=none;shape=connector;rounded=0;orthogonalLoop=1;jettySize=auto;html=1;entryX=0;entryY=1;entryDx=0;entryDy=-15;entryPerimeter=0;strokeColor=#E6E6E6;align=center;verticalAlign=middle;fontFamily=Helvetica;fontSize=11;fontColor=default;labelBackgroundColor=default;startArrow=classic;startFill=1;endArrow=classic;exitX=1;exitY=0.5;exitDx=0;exitDy=0;" edge="1" parent="1" source="Vj6AmxVf0trEwSzTgeyn-166" target="Vj6AmxVf0trEwSzTgeyn-176">
          <mxGeometry relative="1" as="geometry" />
        </mxCell>
        <mxCell id="Vj6AmxVf0trEwSzTgeyn-194" value="" style="sketch=0;outlineConnect=0;fontColor=#232F3E;gradientColor=none;fillColor=#FFFFFF;strokeColor=none;dashed=0;verticalLabelPosition=bottom;verticalAlign=top;align=center;html=1;fontSize=12;fontStyle=0;aspect=fixed;pointerEvents=1;shape=mxgraph.aws4.email_2;fontFamily=Helvetica;labelBackgroundColor=default;" vertex="1" parent="1">
          <mxGeometry x="1123" y="-339.5" width="14.33" height="9" as="geometry" />
        </mxCell>
        <mxCell id="Vj6AmxVf0trEwSzTgeyn-195" value="" style="sketch=0;outlineConnect=0;fontColor=#232F3E;gradientColor=none;fillColor=#FFFFFF;strokeColor=none;dashed=0;verticalLabelPosition=bottom;verticalAlign=top;align=center;html=1;fontSize=12;fontStyle=0;aspect=fixed;pointerEvents=1;shape=mxgraph.aws4.email_2;fontFamily=Helvetica;labelBackgroundColor=default;" vertex="1" parent="1">
          <mxGeometry x="1123" y="-398" width="14.33" height="9" as="geometry" />
        </mxCell>
        <mxCell id="Vj6AmxVf0trEwSzTgeyn-196" value="" style="sketch=0;outlineConnect=0;fontColor=#232F3E;gradientColor=none;fillColor=#FFFFFF;strokeColor=none;dashed=0;verticalLabelPosition=bottom;verticalAlign=top;align=center;html=1;fontSize=12;fontStyle=0;aspect=fixed;pointerEvents=1;shape=mxgraph.aws4.email_2;fontFamily=Helvetica;labelBackgroundColor=default;" vertex="1" parent="1">
          <mxGeometry x="1128" y="-459" width="14.33" height="9" as="geometry" />
        </mxCell>
        <mxCell id="Vj6AmxVf0trEwSzTgeyn-197" value="" style="sketch=0;outlineConnect=0;fontColor=#232F3E;gradientColor=none;fillColor=#FFFFFF;strokeColor=none;dashed=0;verticalLabelPosition=bottom;verticalAlign=top;align=center;html=1;fontSize=12;fontStyle=0;aspect=fixed;pointerEvents=1;shape=mxgraph.aws4.email_2;fontFamily=Helvetica;labelBackgroundColor=default;" vertex="1" parent="1">
          <mxGeometry x="1113.67" y="-516" width="14.33" height="9" as="geometry" />
        </mxCell>
        <mxCell id="Vj6AmxVf0trEwSzTgeyn-198" value="" style="sketch=0;outlineConnect=0;fontColor=#232F3E;gradientColor=none;fillColor=#FFFFFF;strokeColor=none;dashed=0;verticalLabelPosition=bottom;verticalAlign=top;align=center;html=1;fontSize=12;fontStyle=0;aspect=fixed;pointerEvents=1;shape=mxgraph.aws4.email_2;fontFamily=Helvetica;labelBackgroundColor=default;" vertex="1" parent="1">
          <mxGeometry x="1113.67" y="-561" width="14.33" height="9" as="geometry" />
        </mxCell>
        <mxCell id="Vj6AmxVf0trEwSzTgeyn-199" value="" style="sketch=0;outlineConnect=0;fontColor=#232F3E;gradientColor=none;fillColor=#FFFFFF;strokeColor=none;dashed=0;verticalLabelPosition=bottom;verticalAlign=top;align=center;html=1;fontSize=12;fontStyle=0;aspect=fixed;pointerEvents=1;shape=mxgraph.aws4.email_2;fontFamily=Helvetica;labelBackgroundColor=default;" vertex="1" parent="1">
          <mxGeometry x="1113.67" y="-619" width="14.33" height="9" as="geometry" />
        </mxCell>
        <mxCell id="Vj6AmxVf0trEwSzTgeyn-200" value="" style="sketch=0;outlineConnect=0;fontColor=#232F3E;gradientColor=none;fillColor=#FFFFFF;strokeColor=none;dashed=0;verticalLabelPosition=bottom;verticalAlign=top;align=center;html=1;fontSize=12;fontStyle=0;aspect=fixed;pointerEvents=1;shape=mxgraph.aws4.email_2;fontFamily=Helvetica;labelBackgroundColor=default;" vertex="1" parent="1">
          <mxGeometry x="1113.67" y="-670" width="14.33" height="9" as="geometry" />
        </mxCell>
        <mxCell id="Vj6AmxVf0trEwSzTgeyn-201" value="" style="sketch=0;outlineConnect=0;fontColor=#232F3E;gradientColor=none;fillColor=#FFFFFF;strokeColor=none;dashed=0;verticalLabelPosition=bottom;verticalAlign=top;align=center;html=1;fontSize=12;fontStyle=0;aspect=fixed;pointerEvents=1;shape=mxgraph.aws4.email_2;fontFamily=Helvetica;labelBackgroundColor=default;" vertex="1" parent="1">
          <mxGeometry x="1113.67" y="-721.5" width="14.33" height="9" as="geometry" />
        </mxCell>
        <mxCell id="Vj6AmxVf0trEwSzTgeyn-202" value="" style="sketch=0;outlineConnect=0;fontColor=#232F3E;gradientColor=none;fillColor=#FFFFFF;strokeColor=none;dashed=0;verticalLabelPosition=bottom;verticalAlign=top;align=center;html=1;fontSize=12;fontStyle=0;aspect=fixed;pointerEvents=1;shape=mxgraph.aws4.email_2;fontFamily=Helvetica;labelBackgroundColor=default;" vertex="1" parent="1">
          <mxGeometry x="1123" y="-787" width="14.33" height="9" as="geometry" />
        </mxCell>
        <mxCell id="Vj6AmxVf0trEwSzTgeyn-203" value="" style="sketch=0;outlineConnect=0;fontColor=#232F3E;gradientColor=none;fillColor=#FFFFFF;strokeColor=none;dashed=0;verticalLabelPosition=bottom;verticalAlign=top;align=center;html=1;fontSize=12;fontStyle=0;aspect=fixed;pointerEvents=1;shape=mxgraph.aws4.email_2;fontFamily=Helvetica;labelBackgroundColor=default;" vertex="1" parent="1">
          <mxGeometry x="1128" y="-829.5" width="14.33" height="9" as="geometry" />
        </mxCell>
        <mxCell id="Vj6AmxVf0trEwSzTgeyn-204" value="" style="shape=image;verticalLabelPosition=bottom;labelBackgroundColor=default;verticalAlign=top;aspect=fixed;imageAspect=0;image=https://cdn.prod.website-files.com/6064b31ff49a2d31e0493af1/64836bf8d0bac274cea41125_rabbitmq.svg;" vertex="1" parent="1">
          <mxGeometry x="1233" y="-628" width="86" height="86" as="geometry" />
        </mxCell>
        <mxCell id="Vj6AmxVf0trEwSzTgeyn-205" value="&lt;font color=&quot;#ffffff&quot;&gt;RabbitMQ&lt;/font&gt;" style="text;strokeColor=none;align=center;fillColor=none;html=1;verticalAlign=middle;whiteSpace=wrap;rounded=0;fontFamily=Helvetica;fontSize=11;fontColor=default;labelBackgroundColor=none;" vertex="1" parent="1">
          <mxGeometry x="1243" y="-644" width="60" height="30" as="geometry" />
        </mxCell>
        <mxCell id="Vj6AmxVf0trEwSzTgeyn-206" value="" style="swimlane;startSize=0;strokeColor=#3399FF;strokeWidth=3;dashed=1;" vertex="1" parent="1">
          <mxGeometry x="641.3399999999999" y="-1020" width="691.66" height="830.5" as="geometry" />
        </mxCell>
        <mxCell id="Vj6AmxVf0trEwSzTgeyn-212" value="&lt;b style=&quot;font-size: 18px;&quot;&gt;&lt;font color=&quot;#3399ff&quot; style=&quot;font-size: 18px;&quot;&gt;Docker Host&lt;/font&gt;&lt;/b&gt;" style="text;strokeColor=none;align=center;fillColor=none;html=1;verticalAlign=middle;whiteSpace=wrap;rounded=0;fontSize=18;" vertex="1" parent="Vj6AmxVf0trEwSzTgeyn-206">
          <mxGeometry x="11.660000000000025" y="10" width="120" height="30" as="geometry" />
        </mxCell>
        <mxCell id="Vj6AmxVf0trEwSzTgeyn-214" value="" style="shape=image;verticalLabelPosition=bottom;labelBackgroundColor=default;verticalAlign=top;aspect=fixed;imageAspect=0;image=https://upload.wikimedia.org/wikipedia/commons/e/ea/Docker_%28container_engine%29_logo_%28cropped%29.png;" vertex="1" parent="Vj6AmxVf0trEwSzTgeyn-206">
          <mxGeometry x="36.69" y="40" width="69.94" height="40" as="geometry" />
        </mxCell>
        <mxCell id="Vj6AmxVf0trEwSzTgeyn-115" value="" style="line;strokeWidth=4;direction=south;html=1;perimeter=backbonePerimeter;points=[];outlineConnect=0;strokeColor=#FFFFFF;" vertex="1" parent="Vj6AmxVf0trEwSzTgeyn-206">
          <mxGeometry x="460" y="370" width="10" height="150" as="geometry" />
        </mxCell>
        <mxCell id="Vj6AmxVf0trEwSzTgeyn-137" style="edgeStyle=orthogonalEdgeStyle;rounded=0;orthogonalLoop=1;jettySize=auto;html=1;strokeColor=#FFFFFF;" edge="1" parent="1" source="Vj6AmxVf0trEwSzTgeyn-12" target="Vj6AmxVf0trEwSzTgeyn-134">
          <mxGeometry relative="1" as="geometry">
            <Array as="points">
              <mxPoint x="440" y="175" />
              <mxPoint x="440" y="300" />
            </Array>
          </mxGeometry>
        </mxCell>
        <mxCell id="Vj6AmxVf0trEwSzTgeyn-151" style="edgeStyle=orthogonalEdgeStyle;rounded=0;orthogonalLoop=1;jettySize=auto;html=1;strokeColor=#FFFFFF;" edge="1" parent="1" source="Vj6AmxVf0trEwSzTgeyn-102" target="Vj6AmxVf0trEwSzTgeyn-149">
          <mxGeometry relative="1" as="geometry">
            <Array as="points">
              <mxPoint x="400" y="300" />
              <mxPoint x="400" y="560" />
            </Array>
          </mxGeometry>
        </mxCell>
        <mxCell id="Vj6AmxVf0trEwSzTgeyn-150" style="edgeStyle=orthogonalEdgeStyle;rounded=0;orthogonalLoop=1;jettySize=auto;html=1;strokeColor=#FFFFFF;" edge="1" parent="1" target="Vj6AmxVf0trEwSzTgeyn-149">
          <mxGeometry relative="1" as="geometry">
            <Array as="points">
              <mxPoint x="410" y="493" />
              <mxPoint x="410" y="590" />
            </Array>
          </mxGeometry>
        </mxCell>
        <mxCell id="Vj6AmxVf0trEwSzTgeyn-148" style="edgeStyle=orthogonalEdgeStyle;rounded=0;orthogonalLoop=1;jettySize=auto;html=1;strokeColor=#FFFFFF;" edge="1" parent="1">
          <mxGeometry relative="1" as="geometry">
            <mxPoint x="315" y="492.86" as="sourcePoint" />
            <mxPoint x="349" y="492.86" as="targetPoint" />
            <Array as="points">
              <mxPoint x="338" y="492.86" />
              <mxPoint x="338" y="492.86" />
            </Array>
          </mxGeometry>
        </mxCell>
        <mxCell id="Vj6AmxVf0trEwSzTgeyn-149" value="" style="line;strokeWidth=4;direction=south;html=1;perimeter=backbonePerimeter;points=[];outlineConnect=0;strokeColor=#FFFFFF;" vertex="1" parent="1">
          <mxGeometry x="460" y="540" width="10" height="70" as="geometry" />
        </mxCell>
        <mxCell id="Vj6AmxVf0trEwSzTgeyn-188" value="" style="edgeStyle=none;shape=connector;rounded=0;orthogonalLoop=1;jettySize=auto;html=1;strokeColor=#E6E6E6;align=center;verticalAlign=middle;fontFamily=Helvetica;fontSize=11;fontColor=default;labelBackgroundColor=default;startArrow=classic;startFill=1;endArrow=classic;entryX=0.003;entryY=0.646;entryDx=0;entryDy=0;entryPerimeter=0;" edge="1" parent="1" source="Vj6AmxVf0trEwSzTgeyn-90" target="Vj6AmxVf0trEwSzTgeyn-176">
          <mxGeometry relative="1" as="geometry" />
        </mxCell>
        <mxCell id="Vj6AmxVf0trEwSzTgeyn-189" value="" style="edgeStyle=none;shape=connector;rounded=0;orthogonalLoop=1;jettySize=auto;html=1;strokeColor=#E6E6E6;align=center;verticalAlign=middle;fontFamily=Helvetica;fontSize=11;fontColor=default;labelBackgroundColor=default;startArrow=classic;startFill=1;endArrow=classic;entryX=0;entryY=0;entryDx=0;entryDy=267;entryPerimeter=0;" edge="1" parent="1" source="Vj6AmxVf0trEwSzTgeyn-39" target="Vj6AmxVf0trEwSzTgeyn-176">
          <mxGeometry relative="1" as="geometry" />
        </mxCell>
        <mxCell id="Vj6AmxVf0trEwSzTgeyn-186" value="" style="edgeStyle=none;shape=connector;rounded=0;orthogonalLoop=1;jettySize=auto;html=1;strokeColor=#E6E6E6;align=center;verticalAlign=middle;fontFamily=Helvetica;fontSize=11;fontColor=default;labelBackgroundColor=default;startArrow=classic;startFill=1;endArrow=classic;exitX=1.015;exitY=0.601;exitDx=0;exitDy=0;exitPerimeter=0;" edge="1" parent="1" source="Vj6AmxVf0trEwSzTgeyn-72" target="Vj6AmxVf0trEwSzTgeyn-176">
          <mxGeometry relative="1" as="geometry" />
        </mxCell>
        <mxCell id="Vj6AmxVf0trEwSzTgeyn-185" value="" style="edgeStyle=none;shape=connector;rounded=0;orthogonalLoop=1;jettySize=auto;html=1;strokeColor=#E6E6E6;align=center;verticalAlign=middle;fontFamily=Helvetica;fontSize=11;fontColor=default;labelBackgroundColor=default;startArrow=classic;startFill=1;endArrow=classic;exitX=1.012;exitY=0.576;exitDx=0;exitDy=0;exitPerimeter=0;" edge="1" parent="1" source="Vj6AmxVf0trEwSzTgeyn-66" target="Vj6AmxVf0trEwSzTgeyn-176">
          <mxGeometry relative="1" as="geometry" />
        </mxCell>
        <mxCell id="Vj6AmxVf0trEwSzTgeyn-54" value="" style="rounded=1;whiteSpace=wrap;html=1;fillColor=none;strokeWidth=2;strokeColor=#FFFFFF;dashed=1;" vertex="1" parent="1">
          <mxGeometry x="500" y="40" width="192.67" height="70" as="geometry" />
        </mxCell>
      </root>
    </mxGraphModel>
  </diagram>
</mxfile>
